<svg width="32" height="32" viewBox="0 0 32 32" fill="none" xmlns="http://www.w3.org/2000/svg">
<path fill-rule="evenodd" clip-rule="evenodd" d="M3 6C3 4.34315 4.34315 3 6 3H12C13.6569 3 15 4.34315 15 6V12C15 13.6569 13.6569 15 12 15H10V17H12C13.6569 17 15 18.3431 15 20V22H17V20C17 18.3431 18.3431 17 20 17H26C27.6569 17 29 18.3431 29 20V26C29 27.6569 27.6569 29 26 29H20C18.3431 29 17 27.6569 17 26V24H15V26C15 27.6569 13.6569 29 12 29H6C4.34315 29 3 27.6569 3 26V20C3 18.3431 4.34315 17 6 17H8V15H6C4.34315 15 3 13.6569 3 12V6ZM8 13H10H11C12.1046 13 13 12.1046 13 11V7C13 5.89543 12.1046 5 11 5H7C5.89543 5 5 5.89543 5 7V11C5 12.1046 5.89543 13 7 13H8ZM7 19C5.89543 19 5 19.8954 5 21V25C5 26.1046 5.89543 27 7 27H11C12.1046 27 13 26.1046 13 25V24V22V21C13 19.8954 12.1046 19 11 19H7ZM19 21C19 19.8954 19.8954 19 21 19H25C26.1046 19 27 19.8954 27 21V25C27 26.1046 26.1046 27 25 27H21C19.8954 27 19 26.1046 19 25V21Z" fill="#AE7AFF"/>
<path fill-rule="evenodd" clip-rule="evenodd" d="M20 3C18.3431 3 17 4.34315 17 6V12C17 13.6569 18.3431 15 20 15H26C27.6569 15 29 13.6569 29 12V6C29 4.34315 27.6569 3 26 3H20ZM21 5C19.8954 5 19 5.89543 19 7V11C19 12.1046 19.8954 13 21 13H25C26.1046 13 27 12.1046 27 11V7C27 5.89543 26.1046 5 25 5H21Z" fill="#322656"/>
<path fill-rule="evenodd" clip-rule="evenodd" d="M7 8C7 7.44772 7.44772 7 8 7H10C10.5523 7 11 7.44772 11 8V10C11 10.5523 10.5523 11 10 11H8C7.44772 11 7 10.5523 7 10V8ZM7 22C7 21.4477 7.44772 21 8 21H10C10.5523 21 11 21.4477 11 22V24C11 24.5523 10.5523 25 10 25H8C7.44772 25 7 24.5523 7 24V22ZM22 21C21.4477 21 21 21.4477 21 22V24C21 24.5523 21.4477 25 22 25H24C24.5523 25 25 24.5523 25 24V22C25 21.4477 24.5523 21 24 21H22Z" fill="#322656"/>
<rect x="21" y="7" width="4" height="4" rx="1" fill="#AE7AFF"/>
</svg>
